<svg id="Layer_1" data-name="Layer 1" xmlns="http://www.w3.org/2000/svg" viewBox="0 0 481.77 102.66"><defs><style>.cls-1{fill:#fff;}</style></defs><path class="cls-1" d="M53.44,100.55l-28.27-44v44H0V2.11H25.17V43.45L52,2.11H80.16L48.94,49.92l32.62,50.63Z"/><path class="cls-1" d="M77.2,51.33C77.2,22.36,100.13,0,128.81,0s51.61,22.36,51.61,51.33-22.92,51.33-51.61,51.33S77.2,80.3,77.2,51.33Zm78.19,0c0-15.75-11.53-26.72-26.58-26.72s-26.58,11-26.58,26.72,11.54,26.72,26.58,26.72S155.39,67.08,155.39,51.33Z"/><path class="cls-1" d="M254.67,26.44H230.34v74.11H205.17V26.44H180.84V2.11h73.83Z"/><path class="cls-1" d="M289,2.11v98.44H263.81V2.11Z"/><path class="cls-1" d="M302.47,51a50.77,50.77,0,1,1,50.77,50.77A50.65,50.65,0,0,1,302.47,51Zm96.33,0a45.56,45.56,0,1,0-91.12,0,45.56,45.56,0,1,0,91.12,0Z"/><path class="cls-1" d="M415,79.26l4.36-2.53c3.38,11.81,14.2,20.11,31.08,20.11,17.72,0,26.3-9.71,26.3-21.52,0-12.51-11.25-17.86-27-22.64-16.88-5.06-30.66-10.12-30.66-26.44,0-14.9,12.23-26,29.39-26,15.89,0,26,9.28,30.52,20.39L474.74,23c-3.52-9.14-11.25-17.86-26.3-17.86-15.61,0-24.33,10-24.33,21,0,12.94,11.67,17,26.44,21.8,17.16,5.62,31.22,11.39,31.22,27.28s-12.1,26.58-31.5,26.58C431.57,101.76,419.05,92.2,415,79.26Z"/></svg>