<?xml version="1.0" standalone="no"?>
<!DOCTYPE svg PUBLIC "-//W3C//DTD SVG 20010904//EN"
 "http://www.w3.org/TR/2001/REC-SVG-20010904/DTD/svg10.dtd">
<svg version="1.0" xmlns="http://www.w3.org/2000/svg"
 width="548.000000pt" height="548.000000pt" viewBox="0 0 548.000000 548.000000"
 preserveAspectRatio="xMidYMid meet">
<metadata>
Created by potrace 1.11, written by Peter Selinger 2001-2013
</metadata>
<g transform="translate(0.000000,548.000000) scale(0.100000,-0.100000)"
fill="#000000" stroke="none">
<path d="M3069 5466 c-2 -2 -44 -7 -94 -11 -49 -4 -92 -9 -95 -10 -3 -2 -30
-6 -60 -10 -49 -6 -265 -50 -345 -69 -5 -2 -23 -6 -40 -10 -16 -4 -37 -10 -45
-13 -8 -3 -24 -8 -35 -10 -37 -8 -50 -11 -52 -13 -2 -2 -6 -3 -10 -4 -5 -2
-28 -8 -53 -16 -25 -7 -49 -14 -55 -16 -59 -14 -387 -140 -510 -195 -27 -13
-52 -24 -55 -24 -12 -2 -209 -101 -242 -122 -21 -13 -38 -21 -38 -18 0 3 -25
-11 -55 -30 -30 -19 -56 -35 -59 -35 -7 0 -139 -82 -152 -95 -6 -5 -27 -19
-47 -30 -20 -11 -37 -23 -37 -27 0 -5 -5 -8 -11 -8 -6 0 -17 -6 -24 -12 -31
-28 -44 -38 -50 -38 -4 0 -52 -37 -108 -82 -145 -117 -240 -207 -342 -323 -33
-37 -68 -76 -77 -86 -10 -10 -37 -47 -60 -81 -23 -35 -45 -65 -48 -68 -15 -12
-112 -192 -141 -260 -50 -118 -49 -117 -66 -175 -46 -162 -57 -241 -58 -410 0
-144 9 -242 30 -342 3 -13 6 -25 6 -28 1 -5 34 -127 49 -180 12 -44 59 -175
75 -210 7 -16 23 -54 35 -84 11 -30 26 -63 33 -75 6 -12 12 -23 12 -26 1 -11
106 -212 160 -305 68 -117 146 -239 157 -243 5 -2 8 -9 8 -15 0 -7 20 -37 43
-68 23 -32 49 -67 57 -79 8 -13 24 -35 36 -49 11 -14 45 -57 74 -96 30 -38 56
-72 59 -75 4 -3 19 -21 35 -40 81 -99 164 -189 296 -320 173 -172 208 -204
320 -295 47 -38 87 -72 90 -75 14 -16 191 -140 199 -140 5 0 11 -4 13 -9 3 -9
195 -128 273 -169 120 -63 299 -138 375 -157 3 -1 12 -5 20 -8 15 -7 90 -25
125 -31 11 -2 31 -6 45 -10 53 -14 101 -17 260 -20 130 -3 187 0 270 15 58 11
110 21 115 23 6 1 30 8 55 15 58 16 175 57 220 78 150 67 311 156 318 174 2 5
8 9 13 9 17 0 188 127 294 220 62 54 286 281 323 327 19 23 44 53 55 66 45 50
178 227 223 297 16 25 32 47 35 50 4 3 21 30 40 60 18 30 37 58 42 61 5 3 8 8
6 10 -1 2 9 22 23 44 13 22 33 56 44 75 10 19 22 37 25 40 3 3 16 28 29 55 13
28 28 57 35 65 20 26 145 298 194 424 27 67 52 130 56 141 4 11 9 25 10 30 2
6 17 53 33 105 27 82 57 190 67 240 2 8 6 26 9 40 8 34 16 78 22 120 2 19 7
46 9 60 31 168 26 576 -9 755 -3 17 -8 44 -12 60 -65 350 -236 716 -466 1000
-51 63 -268 275 -334 326 -32 26 -97 72 -144 102 -47 31 -90 60 -95 64 -18 14
-218 111 -285 138 -93 37 -246 87 -305 99 -16 4 -41 9 -55 12 -46 10 -174 33
-220 39 -52 7 -455 17 -461 11z"/>
</g>
</svg>
