<svg xmlns="http://www.w3.org/2000/svg" xmlns:xlink="http://www.w3.org/1999/xlink" width="380.043" height="379.892" viewBox="0 0 380.043 379.892">
  <defs>
    <linearGradient id="linear-gradient" x1="0.5" x2="0.5" y2="1" gradientUnits="objectBoundingBox">
      <stop offset="0" stop-color="#281348"/>
      <stop offset="1" stop-color="#ea376d"/>
    </linearGradient>
  </defs>
  <g id="Beta_Blob" data-name="Beta Blob" transform="translate(-104.851 30.809)">
    <path id="Path_648" data-name="Path 648" d="M18.182,178.408C5.684,121.22,18.911,16.22,91.911,1.824,146.321-8.9,235.187,29.329,266.6,74.77c41.837,60.556-25.832,144.659-73.73,176.584C121.658,298.8,35.8,259.11,18.182,178.408Z" transform="matrix(0.695, -0.719, 0.719, 0.695, 95.106, 170.379)" opacity="0.4" fill="url(#linear-gradient)"/>
    <path id="Path_654" data-name="Path 654" d="M17.9,166.31C6.25,113,18.58,15.12,86.63,1.7c50.72-10,133.56,25.64,162.84,68,39,56.45-24.08,134.85-68.73,164.61C114.36,278.54,34.32,241.54,17.9,166.31Z" transform="matrix(0.695, -0.719, 0.719, 0.695, 103.038, 163.025)" fill="url(#linear-gradient)"/>
  </g>
</svg>
